

Release info:

General
Format : Matroska
Format version : Version 2
File size : 694 MiB
Duration : 1h 33mn
Overall bit rate mode : Variable
Overall bit rate : 1 044 Kbps


Video
ID : 1
Format : MPEG-4 Visual
Format profile : Advanced Simple@L5
Format settings, BVOP : Yes
Format settings, QPel : No
Format settings, GMC : No warppoints
Format settings, Matrix : Default (H.263)
Codec ID : V_MS/VFW/FOURCC / XVID
Codec ID/Hint : XviD
Duration : 1h 33mn
Bit rate : 895 Kbps
Width : 640 pixels
Height : 272 pixels
Display aspect ratio : 2.35:1
Frame rate mode : Constant
Frame rate : 23.976 fps
Color space : YUV
Chroma subsampling : 4:2:0
Bit depth : 8 bits
Scan type : Progressive
Compression mode : Lossy
Bits/(Pixel*Frame) : 0.214
Stream size : 595 MiB (86%)
Writing library : XviD 61
Language : English
Default : Yes
Forced : No

Audio
ID : 2
Format : MPEG Audio
Format version : Version 1
Format profile : Layer 3
Mode : Joint stereo
Mode extension : MS Stereo
Muxing mode : Header stripping
Codec ID : A_MPEG/L3
Codec ID/Hint : MP3
Duration : 1h 33mn
Bit rate mode : Variable
Bit rate : 128 Kbps
Channel(s) : 2 channels
Sampling rate : 48.0 KHz
Compression mode : Lossy
Stream size : 85.5 MiB (12%)
Language : English
Default : Yes
Forced : No

Source:
credit to original movie ripper (Thanks)

IMDB Info:

As single mom Grace juggles work, bills, and her affair with a married doctor, her daughter, Ansiedad, plots a shortcut to adulthood after finding inspiration in the coming-of-age stories she's reading for school.

Director: Patricia Riggen
Writer: Hiram Martinez (screenplay)
Stars: Eva Mendes, Cierra Ramirez and Patricia Arquette 

Genres: Comedy | Drama
 
http://www.imdb.com/title/tt1817676/

Screen Shot:
 
http://www.shotpix.com/images/26023106109198236594.png 
http://www.shotpix.com/images/85644850860536665163.png 
http://www.shotpix.com/images/41511476042798773599.png 
http://www.shotpix.com/images/48316185619342081278.png 
http://www.shotpix.com/images/22886084155425732744.png 
http://www.shotpix.com/images/65523460239918162834.png 
http://www.shotpix.com/images/64102657798338800491.png 
http://www.shotpix.com/images/69666213899967067209.png